<svg xmlns="http://www.w3.org/2000/svg" width="59.156" height="59.156" viewBox="0 0 59.156 59.156">
  <path id="Icon_ionic-ios-arrow-dropdown-circle" data-name="Icon ionic-ios-arrow-dropdown-circle" d="M3.375,32.953A29.578,29.578,0,1,0,32.953,3.375,29.574,29.574,0,0,0,3.375,32.953Zm41.111-6.172a2.755,2.755,0,0,1,3.882,0,2.711,2.711,0,0,1,.8,1.934,2.759,2.759,0,0,1-.811,1.948L34.944,44.031a2.741,2.741,0,0,1-3.783-.085L17.553,30.379A2.745,2.745,0,0,1,21.435,26.5L32.967,38.144Z" transform="translate(-3.375 -3.375)"/>
</svg>
