<svg xmlns="http://www.w3.org/2000/svg" width="97.573" height="73.18" viewBox="0 0 97.573 73.18">
  <path id="Icon_awesome-chart-line" data-name="Icon awesome-chart-line" d="M94.524,65.483H12.2V7.549A3.048,3.048,0,0,0,9.147,4.5h-6.1A3.048,3.048,0,0,0,0,7.549V71.581a6.1,6.1,0,0,0,6.1,6.1H94.524a3.048,3.048,0,0,0,3.049-3.049v-6.1A3.048,3.048,0,0,0,94.524,65.483ZM88.425,10.6h-22.5a4.574,4.574,0,0,0-3.234,7.808l6.175,6.175L54.885,38.565,40.9,24.582a6.1,6.1,0,0,0-8.623,0l-13.09,13.09a3.049,3.049,0,0,0,0,4.313L23.5,46.3a3.049,3.049,0,0,0,4.313,0l8.778-8.78L50.572,51.5a6.1,6.1,0,0,0,8.623,0L77.49,33.2l6.175,6.175a4.574,4.574,0,0,0,7.808-3.234v-22.5A3.045,3.045,0,0,0,88.425,10.6Z" transform="translate(0 -4.5)"/>
</svg>
